<mxfile host="app.diagrams.net" modified="2021-06-21T16:27:53.578Z" agent="5.0 (Windows NT 10.0; Win64; x64) AppleWebKit/537.36 (KHTML, like Gecko) Chrome/91.0.4472.106 Safari/537.36" etag="qKMYqJfj2Y3fzz8Ts9eP" version="14.5.4" type="github">
  <diagram id="slKkDAH2nA_gxa5EpRuj" name="invitado">
    <mxGraphModel dx="866" dy="522" grid="1" gridSize="10" guides="1" tooltips="1" connect="1" arrows="1" fold="1" page="1" pageScale="1" pageWidth="827" pageHeight="1169" math="0" shadow="0">
      <root>
        <mxCell id="0" />
        <mxCell id="1" parent="0" />
        <mxCell id="r5AlwJAiXxnHD5-CUrwC-1" style="edgeStyle=orthogonalEdgeStyle;rounded=0;orthogonalLoop=1;jettySize=auto;html=1;exitX=0.5;exitY=1;exitDx=0;exitDy=0;exitPerimeter=0;entryX=0.5;entryY=0;entryDx=0;entryDy=0;entryPerimeter=0;" parent="1" source="r5AlwJAiXxnHD5-CUrwC-4" target="r5AlwJAiXxnHD5-CUrwC-13" edge="1">
          <mxGeometry relative="1" as="geometry" />
        </mxCell>
        <mxCell id="r5AlwJAiXxnHD5-CUrwC-2" style="edgeStyle=orthogonalEdgeStyle;rounded=0;orthogonalLoop=1;jettySize=auto;html=1;exitX=0.5;exitY=1;exitDx=0;exitDy=0;exitPerimeter=0;" parent="1" source="r5AlwJAiXxnHD5-CUrwC-4" target="r5AlwJAiXxnHD5-CUrwC-9" edge="1">
          <mxGeometry relative="1" as="geometry" />
        </mxCell>
        <mxCell id="r5AlwJAiXxnHD5-CUrwC-3" style="edgeStyle=orthogonalEdgeStyle;rounded=0;orthogonalLoop=1;jettySize=auto;html=1;exitX=0.5;exitY=1;exitDx=0;exitDy=0;exitPerimeter=0;" parent="1" source="r5AlwJAiXxnHD5-CUrwC-4" target="r5AlwJAiXxnHD5-CUrwC-5" edge="1">
          <mxGeometry relative="1" as="geometry" />
        </mxCell>
        <mxCell id="r5AlwJAiXxnHD5-CUrwC-4" value="index.jsf" style="html=1;strokeColor=none;fillColor=#0079D6;labelPosition=center;verticalLabelPosition=middle;verticalAlign=top;align=center;fontSize=12;outlineConnect=0;spacingTop=-6;fontColor=#FFFFFF;shape=mxgraph.sitemap.home;" parent="1" vertex="1">
          <mxGeometry x="250" y="60" width="120" height="70" as="geometry" />
        </mxCell>
        <mxCell id="ZIqaS8-U01cKpPwVh8nm-5" style="edgeStyle=orthogonalEdgeStyle;rounded=0;orthogonalLoop=1;jettySize=auto;html=1;entryX=0;entryY=0.5;entryDx=0;entryDy=0;entryPerimeter=0;" edge="1" parent="1" source="r5AlwJAiXxnHD5-CUrwC-5" target="ZIqaS8-U01cKpPwVh8nm-2">
          <mxGeometry relative="1" as="geometry" />
        </mxCell>
        <mxCell id="ZIqaS8-U01cKpPwVh8nm-6" style="edgeStyle=orthogonalEdgeStyle;rounded=0;orthogonalLoop=1;jettySize=auto;html=1;exitX=1;exitY=0.5;exitDx=0;exitDy=0;exitPerimeter=0;entryX=0;entryY=0.5;entryDx=0;entryDy=0;entryPerimeter=0;" edge="1" parent="1" source="r5AlwJAiXxnHD5-CUrwC-5" target="ZIqaS8-U01cKpPwVh8nm-4">
          <mxGeometry relative="1" as="geometry">
            <mxPoint x="600" y="380" as="targetPoint" />
          </mxGeometry>
        </mxCell>
        <mxCell id="r5AlwJAiXxnHD5-CUrwC-5" value="login.jsf&lt;br&gt;" style="html=1;strokeColor=none;fillColor=#0079D6;labelPosition=center;verticalLabelPosition=middle;verticalAlign=top;align=center;fontSize=12;outlineConnect=0;spacingTop=-6;fontColor=#FFFFFF;shape=mxgraph.sitemap.profile;" parent="1" vertex="1">
          <mxGeometry x="440" y="240" width="120" height="70" as="geometry" />
        </mxCell>
        <mxCell id="r5AlwJAiXxnHD5-CUrwC-6" style="edgeStyle=orthogonalEdgeStyle;rounded=0;orthogonalLoop=1;jettySize=auto;html=1;exitX=0.5;exitY=1;exitDx=0;exitDy=0;exitPerimeter=0;" parent="1" source="r5AlwJAiXxnHD5-CUrwC-9" edge="1">
          <mxGeometry relative="1" as="geometry">
            <mxPoint x="500" y="310" as="targetPoint" />
            <Array as="points">
              <mxPoint x="310" y="390" />
              <mxPoint x="500" y="390" />
            </Array>
          </mxGeometry>
        </mxCell>
        <mxCell id="r5AlwJAiXxnHD5-CUrwC-7" style="edgeStyle=orthogonalEdgeStyle;rounded=0;orthogonalLoop=1;jettySize=auto;html=1;exitX=0;exitY=0.75;exitDx=0;exitDy=0;exitPerimeter=0;entryX=1;entryY=0.75;entryDx=0;entryDy=0;entryPerimeter=0;" parent="1" source="r5AlwJAiXxnHD5-CUrwC-9" target="r5AlwJAiXxnHD5-CUrwC-13" edge="1">
          <mxGeometry relative="1" as="geometry" />
        </mxCell>
        <mxCell id="r5AlwJAiXxnHD5-CUrwC-8" style="edgeStyle=orthogonalEdgeStyle;rounded=0;orthogonalLoop=1;jettySize=auto;html=1;exitX=0.75;exitY=0;exitDx=0;exitDy=0;exitPerimeter=0;entryX=0.75;entryY=1;entryDx=0;entryDy=0;entryPerimeter=0;" parent="1" source="r5AlwJAiXxnHD5-CUrwC-9" target="r5AlwJAiXxnHD5-CUrwC-4" edge="1">
          <mxGeometry relative="1" as="geometry" />
        </mxCell>
        <mxCell id="r5AlwJAiXxnHD5-CUrwC-9" value="reporte.jsf" style="html=1;strokeColor=none;fillColor=#0079D6;labelPosition=center;verticalLabelPosition=middle;verticalAlign=top;align=center;fontSize=12;outlineConnect=0;spacingTop=-6;fontColor=#FFFFFF;shape=mxgraph.sitemap.document;" parent="1" vertex="1">
          <mxGeometry x="250" y="240" width="120" height="70" as="geometry" />
        </mxCell>
        <mxCell id="r5AlwJAiXxnHD5-CUrwC-10" style="edgeStyle=orthogonalEdgeStyle;rounded=0;orthogonalLoop=1;jettySize=auto;html=1;exitX=0.5;exitY=1;exitDx=0;exitDy=0;exitPerimeter=0;entryX=0.5;entryY=1;entryDx=0;entryDy=0;entryPerimeter=0;" parent="1" source="r5AlwJAiXxnHD5-CUrwC-13" target="r5AlwJAiXxnHD5-CUrwC-5" edge="1">
          <mxGeometry relative="1" as="geometry">
            <Array as="points">
              <mxPoint x="120" y="430" />
              <mxPoint x="500" y="430" />
            </Array>
          </mxGeometry>
        </mxCell>
        <mxCell id="r5AlwJAiXxnHD5-CUrwC-11" style="edgeStyle=orthogonalEdgeStyle;rounded=0;orthogonalLoop=1;jettySize=auto;html=1;exitX=1;exitY=0.5;exitDx=0;exitDy=0;exitPerimeter=0;entryX=0;entryY=0.5;entryDx=0;entryDy=0;entryPerimeter=0;" parent="1" source="r5AlwJAiXxnHD5-CUrwC-13" target="r5AlwJAiXxnHD5-CUrwC-9" edge="1">
          <mxGeometry relative="1" as="geometry" />
        </mxCell>
        <mxCell id="r5AlwJAiXxnHD5-CUrwC-12" style="edgeStyle=orthogonalEdgeStyle;rounded=0;orthogonalLoop=1;jettySize=auto;html=1;exitX=0.5;exitY=0;exitDx=0;exitDy=0;exitPerimeter=0;entryX=0;entryY=0.5;entryDx=0;entryDy=0;entryPerimeter=0;" parent="1" source="r5AlwJAiXxnHD5-CUrwC-13" target="r5AlwJAiXxnHD5-CUrwC-4" edge="1">
          <mxGeometry relative="1" as="geometry" />
        </mxCell>
        <mxCell id="r5AlwJAiXxnHD5-CUrwC-13" value="autores.jsf" style="html=1;strokeColor=none;fillColor=#0079D6;labelPosition=center;verticalLabelPosition=middle;verticalAlign=top;align=center;fontSize=12;outlineConnect=0;spacingTop=-6;fontColor=#FFFFFF;shape=mxgraph.sitemap.about_us;" parent="1" vertex="1">
          <mxGeometry x="60" y="240" width="120" height="70" as="geometry" />
        </mxCell>
        <mxCell id="ZIqaS8-U01cKpPwVh8nm-2" value="registro.jsf" style="html=1;strokeColor=none;fillColor=#0079D6;labelPosition=center;verticalLabelPosition=middle;verticalAlign=top;align=center;fontSize=12;outlineConnect=0;spacingTop=-6;fontColor=#FFFFFF;shape=mxgraph.sitemap.form;" vertex="1" parent="1">
          <mxGeometry x="630" y="170" width="120" height="70" as="geometry" />
        </mxCell>
        <mxCell id="ZIqaS8-U01cKpPwVh8nm-4" value="RecuContra.jsf" style="html=1;strokeColor=none;fillColor=#0079D6;labelPosition=center;verticalLabelPosition=middle;verticalAlign=top;align=center;fontSize=12;outlineConnect=0;spacingTop=-6;fontColor=#FFFFFF;shape=mxgraph.sitemap.form;" vertex="1" parent="1">
          <mxGeometry x="630" y="340" width="120" height="70" as="geometry" />
        </mxCell>
      </root>
    </mxGraphModel>
  </diagram>
</mxfile>
